<svg xmlns="http://www.w3.org/2000/svg" viewBox="0 0 512 512">
<rect width="512" height="512" fill="#000000"/>
<path d="M256 40 C210 70 150 80 100 85 V210 C100 330 170 410 256 470 C342 410 412 330 412 210 V85 C362 80 302 70 256 40Z"
      fill="none" stroke="#28A7FF" stroke-width="18" stroke-linejoin="round"/>
<path d="M256 150 C230 180 220 205 220 225 C220 255 236 275 256 275 C276 275 292 255 292 225 C292 205 282 180 256 150Z"
      fill="#28A7FF"/>
<circle cx="246" cy="220" r="10" fill="#000000"/>
<path d="M180 320 Q220 290 260 320 Q300 350 340 320" fill="none" stroke="#28A7FF" stroke-width="14" stroke-linecap="round"/>
<path d="M170 365 Q215 335 260 365 Q305 395 350 365" fill="none" stroke="#28A7FF" stroke-width="14" stroke-linecap="round"/>
</svg>